<svg id="color_line" enable-background="new 0 0 256 256" height="512" viewBox="0 0 256 256" width="512" xmlns="http://www.w3.org/2000/svg"><g><g><g><path d="m126.09 66.73h5.5v77.202h-5.5z" fill="#33af50"/></g><g><g><circle cx="129.901" cy="44.282" fill="#e80732" r="22.457"/></g><g><circle cx="129.901" cy="36.309" fill="#fd4755" r="13.182"/></g><g><circle cx="129.901" cy="42.655" fill="#e80732" r="5.981"/></g></g><g><g><ellipse cx="103.461" cy="97.032" fill="#84ce55" rx="10.665" ry="5.698" transform="matrix(.985 -.175 .175 .985 -15.35 19.55)"/></g><g><ellipse cx="115.492" cy="85.001" fill="#84ce55" rx="10.665" ry="5.698" transform="matrix(.175 -.985 .985 .175 11.636 183.882)"/></g><g><path d="m111.632 74.912h5.5v42.019h-5.5z" fill="#33af50" transform="matrix(.707 -.707 .707 .707 -34.325 108.977)"/></g><g><ellipse cx="95.832" cy="77.166" fill="#84ce55" rx="7.141" ry="11.609" transform="matrix(.707 -.707 .707 .707 -26.496 90.365)"/></g></g><g><g><ellipse cx="148.266" cy="120.374" fill="#84ce55" rx="10.665" ry="5.698" transform="matrix(.985 -.173 .173 .985 -18.564 27.42)"/></g><g><ellipse cx="132.846" cy="113.183" fill="#84ce55" rx="5.698" ry="10.665" transform="matrix(.866 -.501 .501 .866 -38.823 81.746)"/></g><g><path d="m116.615 120.315h42.019v5.5h-42.019z" fill="#33af50" transform="matrix(.423 -.906 .906 .423 -32.077 195.776)"/></g><g><ellipse cx="148.641" cy="99.096" fill="#84ce55" rx="11.609" ry="7.141" transform="matrix(.423 -.906 .906 .423 -3.989 191.931)"/></g></g></g><g><g><g><g><g><path d="m140.563 125.245h87.264v5.5h-87.264z" fill="#33af50" transform="matrix(.395 -.919 .919 .395 -6.115 246.707)"/></g></g><g><path d="m179.1614 86.0472s9.0634 17.9352.3664 52.8093l-6.1115 14.2224s-14.372-20.2164 5.7451-67.0317z" fill="#84ce55"/></g><g><path d="m215.0533 109.8462s-19.2493 5.7688-38.5636 36.0806l-6.1115 14.2224c0-.0001 24.5579-3.4877 44.6751-50.303z" fill="#84ce55"/></g></g><g><g><path d="m221.3843 82.9663-30.118-12.9421 4.4359-10.3229 21.6643-9.0986.0641-.1492.0398.1055.104-.0437-.0641.1492 8.3099 21.9789z" fill="#e80732"/></g><g><g><path d="m185.7771 80.0845c1.1309 6.7586 5.5465 12.8116 12.2887 15.7088h.0001c10.5636 4.5393 22.824-.3843 27.3844-10.9971l11.2072-26.0806z" fill="#fea638"/></g><g><path d="m198.01 95.7693c-10.5636-4.5393-15.4301-16.8225-10.8696-27.4353l11.2072-26.0806 19.5164 51.6193c-5.6816 3.8311-13.1119 4.7938-19.854 1.8966z" fill="#ffc344"/></g></g></g></g><g><g><g><g><path d="m70.838 84.341h5.5v87.786h-5.5z" fill="#33af50" transform="matrix(.919 -.395 .395 .919 -44.65 39.47)"/></g></g><g><path d="m78.5186 86.0472s-9.0634 17.9352-.3664 52.8093l6.1115 14.2224s14.372-20.2164-5.7451-67.0317z" fill="#84ce55"/></g><g><path d="m42.6268 109.8462s19.2493 5.7688 38.5636 36.0806l6.1115 14.2224c-.0001-.0001-24.558-3.4877-44.6751-50.303z" fill="#84ce55"/></g></g><g><g><path d="m36.2957 82.9663 30.118-12.9421-4.4359-10.3229-21.6643-9.0986-.0641-.1492-.0398.1055-.104-.0437.0641.1492-8.3099 21.9789z" fill="#e80732"/></g><g><g><path d="m71.9029 80.0845c-1.1309 6.7586-5.5465 12.8116-12.2886 15.7088h-.0001c-10.5635 4.5393-22.824-.3843-27.3844-10.9971l-11.2072-26.0807z" fill="#fea638"/></g><g><path d="m59.67 95.7693c10.5637-4.5393 15.4301-16.8226 10.8696-27.4354l-11.2071-26.0806-19.5164 51.6193c5.6815 3.8312 13.1118 4.7939 19.8539 1.8967z" fill="#ffc344"/></g></g></g></g></g><g><g><path d="m41.5562 146.9584 15.8734 80.573c1.2481 6.3358 6.8037 10.9036 13.2611 10.9036h116.2986c6.4575 0 12.013-4.5678 13.2612-10.9036l15.8733-80.573zm52.034 70.2031c0 3.7324-3.0256 6.758-6.758 6.758-3.7323 0-6.758-3.0257-6.758-6.758v-39.5028c0-3.7323 3.0257-6.758 6.758-6.758 3.7324 0 6.758 3.0257 6.758 6.758zm28.0052 0c0 3.7324-3.0257 6.758-6.758 6.758-3.7323 0-6.758-3.0257-6.758-6.758v-39.5028c0-3.7323 3.0257-6.758 6.758-6.758 3.7323 0 6.758 3.0257 6.758 6.758zm28.0052 0c0 3.7324-3.0257 6.758-6.758 6.758s-6.758-3.0257-6.758-6.758v-39.5028c0-3.7323 3.0257-6.758 6.758-6.758s6.758 3.0257 6.758 6.758zm28.0053 0c0 3.7324-3.0257 6.758-6.758 6.758-3.7323 0-6.758-3.0257-6.758-6.758v-39.5028c0-3.7323 3.0257-6.758 6.758-6.758 3.7323 0 6.758 3.0257 6.758 6.758z" fill="#fd4755"/></g></g><g><g><path d="m215.6192 157.84h-173.5584c-4.9765 0-9.0107-4.0342-9.0107-9.0107v-4.5053c0-4.9765 4.0342-9.0107 9.0107-9.0107h173.5584c4.9765 0 9.0107 4.0342 9.0107 9.0107v4.5053c0 4.9765-4.0342 9.0107-9.0107 9.0107z" fill="#e80732"/></g></g><g><g><g><path d="m111.4966 137.3787-63.8624 63.8624c-2.6849 2.6849-7.0379 2.6849-9.7227 0-2.6849-2.6848-2.6849-7.0379 0-9.7227l63.8624-63.8624c2.6849-2.6849 7.0379-2.6849 9.7227 0 2.6848 2.6849 2.6848 7.0379 0 9.7227z" fill="#fea638"/></g></g><g><g><path d="m149.0311 137.3787 63.8624 63.8624c2.6849 2.6849 7.0379 2.6849 9.7227 0 2.6849-2.6848 2.6849-7.0379 0-9.7227l-63.8624-63.8624c-2.6849-2.6849-7.0379-2.6849-9.7227 0-2.6848 2.6849-2.6848 7.0379 0 9.7227z" fill="#fea638"/></g></g></g></g></svg>